<svg width="20" height="20" viewBox="0 0 20 20" fill="none" xmlns="http://www.w3.org/2000/svg">
<path d="M17.5 3.75H2.5C2.1686 3.75038 1.85087 3.8822 1.61654 4.11654C1.3822 4.35087 1.25038 4.6686 1.25 5V6.875C1.25038 7.2064 1.3822 7.52413 1.61654 7.75846C1.85087 7.9928 2.1686 8.12462 2.5 8.125V15C2.50038 15.3314 2.6322 15.6491 2.86654 15.8835C3.10087 16.1178 3.4186 16.2496 3.75 16.25H16.25C16.5814 16.2496 16.8991 16.1178 17.1335 15.8835C17.3678 15.6491 17.4996 15.3314 17.5 15V8.125C17.8314 8.12462 18.1491 7.9928 18.3835 7.75846C18.6178 7.52413 18.7496 7.2064 18.75 6.875V5C18.7496 4.6686 18.6178 4.35087 18.3835 4.11654C18.1491 3.8822 17.8314 3.75038 17.5 3.75ZM11.875 11.25H8.125C7.95924 11.25 7.80027 11.1842 7.68306 11.0669C7.56585 10.9497 7.5 10.7908 7.5 10.625C7.5 10.4592 7.56585 10.3003 7.68306 10.1831C7.80027 10.0658 7.95924 10 8.125 10H11.875C12.0408 10 12.1997 10.0658 12.3169 10.1831C12.4342 10.3003 12.5 10.4592 12.5 10.625C12.5 10.7908 12.4342 10.9497 12.3169 11.0669C12.1997 11.1842 12.0408 11.25 11.875 11.25ZM17.5 6.875H2.5V5H17.5L17.5008 6.875H17.5Z" fill="url(#paint0_linear_31_80)"/>
<defs>
<linearGradient id="paint0_linear_31_80" x1="10" y1="3.75" x2="10" y2="16.25" gradientUnits="userSpaceOnUse">
<stop stop-color="#9AECC0"/>
<stop offset="1" stop-color="#62CEDE"/>
</linearGradient>
</defs>
</svg>
