<svg width="20" height="20" viewBox="0 0 20 20" fill="none" xmlns="http://www.w3.org/2000/svg">
<path d="M13.7518 2.5C13.0242 2.49875 12.3064 2.6673 11.6554 2.99226C11.0044 3.31721 10.4382 3.78959 10.0018 4.37183C9.41086 3.58554 8.5876 3.00499 7.64853 2.71235C6.70945 2.4197 5.70213 2.42977 4.76909 2.74113C3.83606 3.05249 3.02456 3.64938 2.44943 4.44733C1.8743 5.24528 1.56466 6.20388 1.56433 7.1875C1.56433 12.8018 9.3644 17.2344 9.69643 17.4203C9.78973 17.4726 9.89489 17.5 10.0018 17.5C10.1088 17.5 10.2139 17.4726 10.3072 17.4203C11.7418 16.5801 13.0882 15.5977 14.3262 14.488C17.0554 12.0316 18.4393 9.57539 18.4393 7.1875C18.4379 5.94473 17.9436 4.75326 17.0648 3.87449C16.1861 2.99572 14.9946 2.50141 13.7518 2.5V2.5Z" fill="url(#paint0_linear_31_48)" fill-opacity="0.5"/>
<defs>
<linearGradient id="paint0_linear_31_48" x1="10.0018" y1="2.49999" x2="10.0018" y2="17.5" gradientUnits="userSpaceOnUse">
<stop stop-color="#6CDB9F"/>
<stop offset="1" stop-color="#3496A5"/>
</linearGradient>
</defs>
</svg>
