<svg width="20" height="20" viewBox="0 0 20 20" fill="none" xmlns="http://www.w3.org/2000/svg">
<path d="M13.7518 2.50001C13.0242 2.49876 12.3064 2.66731 11.6554 2.99226C11.0044 3.31722 10.4382 3.7896 10.0018 4.37184C9.41086 3.58555 8.5876 3.005 7.64853 2.71235C6.70945 2.4197 5.70213 2.42977 4.76909 2.74114C3.83606 3.0525 3.02456 3.64938 2.44943 4.44733C1.8743 5.24529 1.56466 6.20389 1.56433 7.18751C1.56433 12.8018 9.3644 17.2344 9.69643 17.4203C9.78973 17.4726 9.89489 17.5 10.0018 17.5C10.1088 17.5 10.2139 17.4726 10.3072 17.4203C11.7418 16.5801 13.0882 15.5977 14.3262 14.488C17.0554 12.0316 18.4393 9.57539 18.4393 7.18751C18.4379 5.94474 17.9436 4.75327 17.0648 3.8745C16.1861 2.99573 14.9946 2.50142 13.7518 2.50001Z" fill="url(#paint0_linear_31_77)"/>
<defs>
<linearGradient id="paint0_linear_31_77" x1="10.0018" y1="2.5" x2="10.0018" y2="17.5" gradientUnits="userSpaceOnUse">
<stop stop-color="#9AECC0"/>
<stop offset="1" stop-color="#62CEDE"/>
</linearGradient>
</defs>
</svg>
