<svg width="18" height="18" viewBox="0 0 18 18" fill="none" xmlns="http://www.w3.org/2000/svg">
<path d="M17.4794 0.520592C17.3222 0.36355 17.1261 0.251207 16.9111 0.195117C16.6961 0.139026 16.47 0.141213 16.2562 0.201451L1.6993 4.30721C1.45437 4.37629 1.23636 4.51848 1.07441 4.71477C0.912459 4.91107 0.814281 5.15212 0.792999 5.40571C0.771716 5.6593 0.828344 5.91334 0.955311 6.13389C1.08228 6.35443 1.27354 6.53097 1.50353 6.6399L7.59209 9.52396L11.7548 5.36129C11.872 5.24407 12.031 5.17822 12.1967 5.17822C12.3625 5.17822 12.5215 5.24407 12.6387 5.36129C12.7559 5.47851 12.8218 5.63749 12.8218 5.80326C12.8218 5.96903 12.7559 6.12801 12.6387 6.24523L8.47603 10.4079L11.3601 16.4965C11.46 16.7107 11.6191 16.8918 11.8186 17.0185C12.0182 17.1452 12.2498 17.2122 12.4862 17.2115C12.522 17.2115 12.558 17.21 12.5943 17.207C12.8483 17.1871 13.0901 17.0895 13.2866 16.9273C13.4832 16.7651 13.625 16.5463 13.6928 16.3007L17.7985 1.74381C17.8587 1.52995 17.8609 1.30392 17.8048 1.08894C17.7487 0.873963 17.6364 0.677796 17.4794 0.520592Z" fill="url(#paint0_linear_38_13)"/>
<defs>
<linearGradient id="paint0_linear_38_13" x1="9.31697" y1="0.154602" x2="9.31697" y2="17.2115" gradientUnits="userSpaceOnUse">
<stop stop-color="#9AECC0"/>
<stop offset="1" stop-color="#62CEDE"/>
</linearGradient>
</defs>
</svg>
