<svg width="91" height="29" viewBox="0 0 91 29" fill="none" xmlns="http://www.w3.org/2000/svg">
<path d="M7.632 23.384C6.24 23.384 4.88 23.232 3.552 22.928C2.24 22.608 1.16 22.184 0.312 21.656L2.136 17.528C2.936 17.992 3.832 18.368 4.824 18.656C5.816 18.928 6.768 19.064 7.68 19.064C8.464 19.064 9.024 18.992 9.36 18.848C9.696 18.688 9.864 18.456 9.864 18.152C9.864 17.8 9.64 17.536 9.192 17.36C8.76 17.184 8.04 16.992 7.032 16.784C5.736 16.512 4.656 16.224 3.792 15.92C2.928 15.6 2.176 15.088 1.536 14.384C0.896 13.664 0.576 12.696 0.576 11.48C0.576 10.424 0.872 9.464 1.464 8.6C2.056 7.736 2.936 7.056 4.104 6.56C5.288 6.064 6.72 5.816 8.4 5.816C9.552 5.816 10.68 5.944 11.784 6.2C12.904 6.44 13.888 6.8 14.736 7.28L13.032 11.384C11.384 10.552 9.824 10.136 8.352 10.136C6.896 10.136 6.168 10.488 6.168 11.192C6.168 11.528 6.384 11.784 6.816 11.96C7.248 12.12 7.96 12.296 8.952 12.488C10.232 12.728 11.312 13.008 12.192 13.328C13.072 13.632 13.832 14.136 14.472 14.84C15.128 15.544 15.456 16.504 15.456 17.72C15.456 18.776 15.16 19.736 14.568 20.6C13.976 21.448 13.088 22.128 11.904 22.64C10.736 23.136 9.312 23.384 7.632 23.384ZM28.5894 20.072H22.2054L21.0774 23H15.3174L22.6614 6.2H28.2294L35.5734 23H29.7174L28.5894 20.072ZM27.0294 15.992L25.3974 11.768L23.7654 15.992H27.0294ZM45.051 23.384C43.243 23.384 41.619 23.008 40.179 22.256C38.739 21.504 37.611 20.464 36.795 19.136C35.979 17.792 35.571 16.28 35.571 14.6C35.571 12.92 35.979 11.416 36.795 10.088C37.611 8.744 38.739 7.696 40.179 6.944C41.619 6.192 43.243 5.816 45.051 5.816C46.859 5.816 48.483 6.192 49.923 6.944C51.363 7.696 52.491 8.744 53.307 10.088C54.123 11.416 54.531 12.92 54.531 14.6C54.531 16.28 54.123 17.792 53.307 19.136C52.491 20.464 51.363 21.504 49.923 22.256C48.483 23.008 46.859 23.384 45.051 23.384ZM45.051 18.8C45.755 18.8 46.387 18.632 46.947 18.296C47.523 17.944 47.979 17.456 48.315 16.832C48.651 16.192 48.819 15.448 48.819 14.6C48.819 13.752 48.651 13.016 48.315 12.392C47.979 11.752 47.523 11.264 46.947 10.928C46.387 10.576 45.755 10.4 45.051 10.4C44.347 10.4 43.707 10.576 43.131 10.928C42.571 11.264 42.123 11.752 41.787 12.392C41.451 13.016 41.283 13.752 41.283 14.6C41.283 15.448 41.451 16.192 41.787 16.832C42.123 17.456 42.571 17.944 43.131 18.296C43.707 18.632 44.347 18.8 45.051 18.8ZM56.5868 6.2H62.2508V18.608H69.8348V23H56.5868V6.2ZM83.0816 20.072H76.6976L75.5696 23H69.8096L77.1536 6.2H82.7216L90.0656 23H84.2096L83.0816 20.072ZM81.5216 15.992L79.8896 11.768L78.2576 15.992H81.5216Z" fill="url(#paint0_linear_46_242)"/>
<defs>
<linearGradient id="paint0_linear_46_242" x1="0" y1="29" x2="90" y2="29" gradientUnits="userSpaceOnUse">
<stop stop-color="#3496A5"/>
<stop offset="1" stop-color="#6CDB9F"/>
</linearGradient>
</defs>
</svg>
