<svg width="20" height="20" viewBox="0 0 20 20" fill="none" xmlns="http://www.w3.org/2000/svg">
<path d="M10.0001 1.87515C8.58889 1.87548 7.20207 2.2433 5.97616 2.94238C4.75026 3.64147 3.72753 4.64774 3.00863 5.86213C2.28974 7.07653 1.89946 8.4572 1.87622 9.86823C1.85299 11.2793 2.19758 12.672 2.8761 13.9094L2.20776 16.2465C2.14663 16.4608 2.14391 16.6876 2.19987 16.9034C2.25584 17.1191 2.36845 17.316 2.52606 17.4736C2.68367 17.6312 2.88054 17.7438 3.09629 17.7998C3.31204 17.8557 3.53883 17.853 3.75317 17.7919L6.09021 17.1242C7.17631 17.7202 8.38433 18.06 9.62189 18.1176C10.8595 18.1752 12.0938 17.949 13.2306 17.4564C14.3673 16.9637 15.3764 16.2177 16.1806 15.2753C16.9848 14.3328 17.5628 13.219 17.8705 12.0189C18.1782 10.8188 18.2074 9.56428 17.9559 8.35117C17.7044 7.13806 17.1788 5.99853 16.4194 5.0197C15.6599 4.04086 14.6867 3.24866 13.5741 2.70364C12.4615 2.15863 11.239 1.87524 10.0001 1.87515V1.87515Z" fill="url(#paint0_linear_31_44)" fill-opacity="0.5"/>
<defs>
<linearGradient id="paint0_linear_31_44" x1="10.0001" y1="1.87515" x2="10.0001" y2="18.1264" gradientUnits="userSpaceOnUse">
<stop stop-color="#6CDB9F"/>
<stop offset="1" stop-color="#3496A5"/>
</linearGradient>
</defs>
</svg>
