<svg width="20" height="20" viewBox="0 0 20 20" fill="none" xmlns="http://www.w3.org/2000/svg">
<path d="M17.4794 2.5206C17.3222 2.36356 17.1261 2.25121 16.9111 2.19512C16.6961 2.13903 16.47 2.14122 16.2562 2.20146L1.6993 6.30722C1.45437 6.3763 1.23636 6.51848 1.07441 6.71478C0.91246 6.91108 0.814282 7.15213 0.793 7.40572C0.771717 7.65931 0.828344 7.91335 0.955312 8.1339C1.08228 8.35444 1.27354 8.53098 1.50353 8.63991L7.59209 11.524L11.7548 7.3613C11.872 7.24408 12.031 7.17823 12.1967 7.17823C12.3625 7.17823 12.5215 7.24408 12.6387 7.3613C12.7559 7.47851 12.8218 7.6375 12.8218 7.80327C12.8218 7.96904 12.7559 8.12802 12.6387 8.24524L8.47603 12.4079L11.3601 18.4965C11.46 18.7107 11.6191 18.8919 11.8186 19.0186C12.0182 19.1453 12.2498 19.2122 12.4862 19.2115C12.522 19.2115 12.558 19.21 12.5943 19.207C12.8483 19.1871 13.0901 19.0895 13.2866 18.9273C13.4832 18.7651 13.625 18.5463 13.6928 18.3007L17.7985 3.74382C17.8587 3.52996 17.8609 3.30392 17.8048 3.08895C17.7487 2.87397 17.6364 2.6778 17.4794 2.5206Z" fill="url(#paint0_linear_31_53)" fill-opacity="0.5"/>
<defs>
<linearGradient id="paint0_linear_31_53" x1="9.31697" y1="2.15461" x2="9.31697" y2="19.2115" gradientUnits="userSpaceOnUse">
<stop stop-color="#6CDB9F"/>
<stop offset="1" stop-color="#3496A5"/>
</linearGradient>
</defs>
</svg>
